<svg height="5870" width="720" xmlns="http://www.w3.org/2000/svg">
<rect height="5870" fill="#555" width="720"></rect>
<text fill="#7f7" font-family="Courier New" font-size="12" xml:space="preserve">
<tspan x="10" y="26">64 megabytes installed</tspan>
<tspan x="10" y="42"></tspan>
<tspan x="10" y="58">node_modules</tspan>
<tspan x="10" y="74">└─┬ ember-cli-fastboot@1.0.0-beta.16 </tspan>
<tspan x="10" y="90">  ├─┬ broccoli-funnel@1.2.0 </tspan>
<tspan x="10" y="106">  │ ├── array-equal@1.0.0 </tspan>
<tspan x="10" y="122">  │ ├── blank-object@1.0.2 </tspan>
<tspan x="10" y="138">  │ ├── exists-sync@0.0.4 </tspan>
<tspan x="10" y="154">  │ ├── fast-ordered-set@1.0.3 </tspan>
<tspan x="10" y="170">  │ ├─┬ fs-tree-diff@0.5.6 </tspan>
<tspan x="10" y="186">  │ │ └── object-assign@4.1.1 </tspan>
<tspan x="10" y="202">  │ ├─┬ heimdalljs@0.2.4 </tspan>
<tspan x="10" y="218">  │ │ └── rsvp@3.2.1 </tspan>
<tspan x="10" y="234">  │ ├─┬ minimatch@3.0.3 </tspan>
<tspan x="10" y="250">  │ │ └─┬ brace-expansion@1.1.7 </tspan>
<tspan x="10" y="266">  │ │   ├── balanced-match@0.4.2 </tspan>
<tspan x="10" y="282">  │ │   └── concat-map@0.0.1 </tspan>
<tspan x="10" y="298">  │ ├─┬ mkdirp@0.5.1 </tspan>
<tspan x="10" y="314">  │ │ └── minimist@0.0.8 </tspan>
<tspan x="10" y="330">  │ ├── path-posix@1.0.0 </tspan>
<tspan x="10" y="346">  │ ├─┬ rimraf@2.6.1 </tspan>
<tspan x="10" y="362">  │ │ └─┬ glob@7.1.1 </tspan>
<tspan x="10" y="378">  │ │   ├── fs.realpath@1.0.0 </tspan>
<tspan x="10" y="394">  │ │   ├─┬ inflight@1.0.6 </tspan>
<tspan x="10" y="410">  │ │   │ └── wrappy@1.0.2 </tspan>
<tspan x="10" y="426">  │ │   ├── inherits@2.0.3 </tspan>
<tspan x="10" y="442">  │ │   ├── once@1.4.0 </tspan>
<tspan x="10" y="458">  │ │   └── path-is-absolute@1.0.1 </tspan>
<tspan x="10" y="474">  │ ├── symlink-or-copy@1.1.8 </tspan>
<tspan x="10" y="490">  │ └─┬ walk-sync@0.3.1 </tspan>
<tspan x="10" y="506">  │   └── matcher-collection@1.0.4 </tspan>
<tspan x="10" y="522">  ├─┬ broccoli-merge-trees@1.2.4 </tspan>
<tspan x="10" y="538">  │ ├─┬ can-symlink@1.0.0 </tspan>
<tspan x="10" y="554">  │ │ └─┬ tmp@0.0.28 </tspan>
<tspan x="10" y="570">  │ │   └── os-tmpdir@1.0.2 </tspan>
<tspan x="10" y="586">  │ └── heimdalljs-logger@0.1.9 </tspan>
<tspan x="10" y="602">  ├─┬ broccoli-plugin@1.3.0 </tspan>
<tspan x="10" y="618">  │ ├── promise-map-series@0.2.3 </tspan>
<tspan x="10" y="634">  │ └─┬ quick-temp@0.1.8 </tspan>
<tspan x="10" y="650">  │   ├── mktemp@0.4.0 </tspan>
<tspan x="10" y="666">  │   └─┬ underscore.string@3.3.4 </tspan>
<tspan x="10" y="682">  │     ├── sprintf-js@1.0.3 </tspan>
<tspan x="10" y="698">  │     └── util-deprecate@1.0.2 </tspan>
<tspan x="10" y="714">  ├─┬ broccoli-stew@1.4.2 </tspan>
<tspan x="10" y="730">  │ ├─┬ broccoli-persistent-filter@1.2.13 </tspan>
<tspan x="10" y="746">  │ │ ├─┬ async-disk-cache@1.3.1 </tspan>
<tspan x="10" y="762">  │ │ │ └─┬ istextorbinary@2.1.0 </tspan>
<tspan x="10" y="778">  │ │ │   ├── binaryextensions@2.0.0 </tspan>
<tspan x="10" y="794">  │ │ │   ├── editions@1.3.3 </tspan>
<tspan x="10" y="810">  │ │ │   └── textextensions@2.0.1 </tspan>
<tspan x="10" y="826">  │ │ └─┬ hash-for-dep@1.1.2 </tspan>
<tspan x="10" y="842">  │ │   └─┬ broccoli-kitchen-sink-helpers@0.3.1 </tspan>
<tspan x="10" y="858">  │ │     └── glob@5.0.15 </tspan>
<tspan x="10" y="874">  │ ├─┬ chalk@1.1.3 </tspan>
<tspan x="10" y="890">  │ │ ├── ansi-styles@2.2.1 </tspan>
<tspan x="10" y="906">  │ │ ├── escape-string-regexp@1.0.5 </tspan>
<tspan x="10" y="922">  │ │ ├─┬ has-ansi@2.0.0 </tspan>
<tspan x="10" y="938">  │ │ │ └── ansi-regex@2.1.1 </tspan>
<tspan x="10" y="954">  │ │ ├── strip-ansi@3.0.1 </tspan>
<tspan x="10" y="970">  │ │ └── supports-color@2.0.0 </tspan>
<tspan x="10" y="986">  │ ├── ensure-posix-path@1.0.2 </tspan>
<tspan x="10" y="1002">  │ ├─┬ fs-extra@2.1.2 </tspan>
<tspan x="10" y="1018">  │ │ ├── graceful-fs@4.1.11 </tspan>
<tspan x="10" y="1034">  │ │ └── jsonfile@2.4.0 </tspan>
<tspan x="10" y="1050">  │ ├─┬ resolve@1.3.3 </tspan>
<tspan x="10" y="1066">  │ │ └── path-parse@1.0.5 </tspan>
<tspan x="10" y="1082">  │ └─┬ sanitize-filename@1.6.1 </tspan>
<tspan x="10" y="1098">  │   └─┬ truncate-utf8-bytes@1.0.2 </tspan>
<tspan x="10" y="1114">  │     └── utf8-byte-length@1.0.4 </tspan>
<tspan x="10" y="1130">  ├─┬ compression@1.6.2 </tspan>
<tspan x="10" y="1146">  │ ├─┬ accepts@1.3.3 </tspan>
<tspan x="10" y="1162">  │ │ ├── mime-types@2.1.15 </tspan>
<tspan x="10" y="1178">  │ │ └── negotiator@0.6.1 </tspan>
<tspan x="10" y="1194">  │ ├── bytes@2.3.0 </tspan>
<tspan x="10" y="1210">  │ ├─┬ compressible@2.0.10 </tspan>
<tspan x="10" y="1226">  │ │ └── mime-db@1.27.0 </tspan>
<tspan x="10" y="1242">  │ ├─┬ debug@2.2.0 </tspan>
<tspan x="10" y="1258">  │ │ └── ms@0.7.1 </tspan>
<tspan x="10" y="1274">  │ ├── on-headers@1.0.1 </tspan>
<tspan x="10" y="1290">  │ └── vary@1.1.1 </tspan>
<tspan x="10" y="1306">  ├── core-object@2.1.1 </tspan>
<tspan x="10" y="1322">  ├─┬ debug@2.6.3 </tspan>
<tspan x="10" y="1338">  │ └── ms@0.7.2 </tspan>
<tspan x="10" y="1354">  ├─┬ ember-cli-babel@5.2.4 </tspan>
<tspan x="10" y="1370">  │ ├─┬ broccoli-babel-transpiler@5.6.2 </tspan>
<tspan x="10" y="1386">  │ │ ├─┬ babel-core@5.8.38 </tspan>
<tspan x="10" y="1402">  │ │ │ ├── babel-plugin-constant-folding@1.0.1 </tspan>
<tspan x="10" y="1418">  │ │ │ ├── babel-plugin-dead-code-elimination@1.0.2 </tspan>
<tspan x="10" y="1434">  │ │ │ ├── babel-plugin-eval@1.0.1 </tspan>
<tspan x="10" y="1450">  │ │ │ ├── babel-plugin-inline-environment-variables@1.0.1 </tspan>
<tspan x="10" y="1466">  │ │ │ ├── babel-plugin-jscript@1.0.4 </tspan>
<tspan x="10" y="1482">  │ │ │ ├── babel-plugin-member-expression-literals@1.0.1 </tspan>
<tspan x="10" y="1498">  │ │ │ ├── babel-plugin-property-literals@1.0.1 </tspan>
<tspan x="10" y="1514">  │ │ │ ├── babel-plugin-proto-to-assign@1.0.4 </tspan>
<tspan x="10" y="1530">  │ │ │ ├── babel-plugin-react-constant-elements@1.0.3 </tspan>
<tspan x="10" y="1546">  │ │ │ ├── babel-plugin-react-display-name@1.0.3 </tspan>
<tspan x="10" y="1562">  │ │ │ ├── babel-plugin-remove-console@1.0.1 </tspan>
<tspan x="10" y="1578">  │ │ │ ├── babel-plugin-remove-debugger@1.0.1 </tspan>
<tspan x="10" y="1594">  │ │ │ ├── babel-plugin-runtime@1.0.7 </tspan>
<tspan x="10" y="1610">  │ │ │ ├─┬ babel-plugin-undeclared-variables-check@1.0.2 </tspan>
<tspan x="10" y="1626">  │ │ │ │ └── leven@1.0.2 </tspan>
<tspan x="10" y="1642">  │ │ │ ├── babel-plugin-undefined-to-void@1.1.6 </tspan>
<tspan x="10" y="1658">  │ │ │ ├── babylon@5.8.38 </tspan>
<tspan x="10" y="1674">  │ │ │ ├── bluebird@2.11.0 </tspan>
<tspan x="10" y="1690">  │ │ │ ├── convert-source-map@1.5.0 </tspan>
<tspan x="10" y="1706">  │ │ │ ├── core-js@1.2.7 </tspan>
<tspan x="10" y="1722">  │ │ │ ├─┬ detect-indent@3.0.1 </tspan>
<tspan x="10" y="1738">  │ │ │ │ ├── get-stdin@4.0.1 </tspan>
<tspan x="10" y="1754">  │ │ │ │ └── minimist@1.2.0 </tspan>
<tspan x="10" y="1770">  │ │ │ ├── esutils@2.0.2 </tspan>
<tspan x="10" y="1786">  │ │ │ ├── fs-readdir-recursive@0.1.2 </tspan>
<tspan x="10" y="1802">  │ │ │ ├── globals@6.4.1 </tspan>
<tspan x="10" y="1818">  │ │ │ ├─┬ home-or-tmp@1.0.0 </tspan>
<tspan x="10" y="1834">  │ │ │ │ └── user-home@1.1.1 </tspan>
<tspan x="10" y="1850">  │ │ │ ├─┬ is-integer@1.0.6 </tspan>
<tspan x="10" y="1866">  │ │ │ │ └─┬ is-finite@1.0.2 </tspan>
<tspan x="10" y="1882">  │ │ │ │   └── number-is-nan@1.0.1 </tspan>
<tspan x="10" y="1898">  │ │ │ ├── js-tokens@1.0.1 </tspan>
<tspan x="10" y="1914">  │ │ │ ├── json5@0.4.0 </tspan>
<tspan x="10" y="1930">  │ │ │ ├── lodash@3.10.1 </tspan>
<tspan x="10" y="1946">  │ │ │ ├── minimatch@2.0.10 </tspan>
<tspan x="10" y="1962">  │ │ │ ├── output-file-sync@1.1.2 </tspan>
<tspan x="10" y="1978">  │ │ │ ├── path-exists@1.0.0 </tspan>
<tspan x="10" y="1994">  │ │ │ ├── private@0.1.7 </tspan>
<tspan x="10" y="2010">  │ │ │ ├─┬ regenerator@0.8.40 </tspan>
<tspan x="10" y="2026">  │ │ │ │ ├─┬ commoner@0.10.8 </tspan>
<tspan x="10" y="2042">  │ │ │ │ │ ├─┬ commander@2.9.0 </tspan>
<tspan x="10" y="2058">  │ │ │ │ │ │ └── graceful-readlink@1.0.1 </tspan>
<tspan x="10" y="2074">  │ │ │ │ │ ├─┬ detective@4.5.0 </tspan>
<tspan x="10" y="2090">  │ │ │ │ │ │ ├── acorn@4.0.11 </tspan>
<tspan x="10" y="2106">  │ │ │ │ │ │ └── defined@1.0.0 </tspan>
<tspan x="10" y="2122">  │ │ │ │ │ ├── glob@5.0.15 </tspan>
<tspan x="10" y="2138">  │ │ │ │ │ ├── iconv-lite@0.4.15 </tspan>
<tspan x="10" y="2154">  │ │ │ │ │ ├── q@1.5.0 </tspan>
<tspan x="10" y="2170">  │ │ │ │ │ └─┬ recast@0.11.23 </tspan>
<tspan x="10" y="2186">  │ │ │ │ │   ├── ast-types@0.9.6 </tspan>
<tspan x="10" y="2202">  │ │ │ │ │   └── esprima@3.1.3 </tspan>
<tspan x="10" y="2218">  │ │ │ │ ├─┬ defs@1.1.1 </tspan>
<tspan x="10" y="2234">  │ │ │ │ │ ├─┬ alter@0.2.0 </tspan>
<tspan x="10" y="2250">  │ │ │ │ │ │ └── stable@0.1.6 </tspan>
<tspan x="10" y="2266">  │ │ │ │ │ ├── ast-traverse@0.1.1 </tspan>
<tspan x="10" y="2282">  │ │ │ │ │ ├── breakable@1.0.0 </tspan>
<tspan x="10" y="2298">  │ │ │ │ │ ├── simple-fmt@0.1.0 </tspan>
<tspan x="10" y="2314">  │ │ │ │ │ ├── simple-is@0.2.0 </tspan>
<tspan x="10" y="2330">  │ │ │ │ │ ├── stringmap@0.2.2 </tspan>
<tspan x="10" y="2346">  │ │ │ │ │ ├── stringset@0.2.1 </tspan>
<tspan x="10" y="2362">  │ │ │ │ │ ├── tryor@0.1.2 </tspan>
<tspan x="10" y="2378">  │ │ │ │ │ └─┬ yargs@3.27.0 </tspan>
<tspan x="10" y="2394">  │ │ │ │ │   ├── camelcase@1.2.1 </tspan>
<tspan x="10" y="2410">  │ │ │ │ │   ├─┬ cliui@2.1.0 </tspan>
<tspan x="10" y="2426">  │ │ │ │ │   │ ├─┬ center-align@0.1.3 </tspan>
<tspan x="10" y="2442">  │ │ │ │ │   │ │ ├─┬ align-text@0.1.4 </tspan>
<tspan x="10" y="2458">  │ │ │ │ │   │ │ │ ├─┬ kind-of@3.1.0 </tspan>
<tspan x="10" y="2474">  │ │ │ │ │   │ │ │ │ └── is-buffer@1.1.5 </tspan>
<tspan x="10" y="2490">  │ │ │ │ │   │ │ │ ├── longest@1.0.1 </tspan>
<tspan x="10" y="2506">  │ │ │ │ │   │ │ │ └── repeat-string@1.6.1 </tspan>
<tspan x="10" y="2522">  │ │ │ │ │   │ │ └── lazy-cache@1.0.4 </tspan>
<tspan x="10" y="2538">  │ │ │ │ │   │ ├── right-align@0.1.3 </tspan>
<tspan x="10" y="2554">  │ │ │ │ │   │ └── wordwrap@0.0.2 </tspan>
<tspan x="10" y="2570">  │ │ │ │ │   ├── decamelize@1.2.0 </tspan>
<tspan x="10" y="2586">  │ │ │ │ │   ├─┬ os-locale@1.4.0 </tspan>
<tspan x="10" y="2602">  │ │ │ │ │   │ └─┬ lcid@1.0.0 </tspan>
<tspan x="10" y="2618">  │ │ │ │ │   │   └── invert-kv@1.0.0 </tspan>
<tspan x="10" y="2634">  │ │ │ │ │   ├── window-size@0.1.4 </tspan>
<tspan x="10" y="2650">  │ │ │ │ │   └── y18n@3.2.1 </tspan>
<tspan x="10" y="2666">  │ │ │ │ ├── esprima-fb@15001.1001.0-dev-harmony-fb </tspan>
<tspan x="10" y="2682">  │ │ │ │ ├─┬ recast@0.10.33 </tspan>
<tspan x="10" y="2698">  │ │ │ │ │ └── ast-types@0.8.12 </tspan>
<tspan x="10" y="2714">  │ │ │ │ └── through@2.3.8 </tspan>
<tspan x="10" y="2730">  │ │ │ ├─┬ regexpu@1.3.0 </tspan>
<tspan x="10" y="2746">  │ │ │ │ ├── esprima@2.7.3 </tspan>
<tspan x="10" y="2762">  │ │ │ │ ├── regenerate@1.3.2 </tspan>
<tspan x="10" y="2778">  │ │ │ │ ├── regjsgen@0.2.0 </tspan>
<tspan x="10" y="2794">  │ │ │ │ └─┬ regjsparser@0.1.5 </tspan>
<tspan x="10" y="2810">  │ │ │ │   └── jsesc@0.5.0 </tspan>
<tspan x="10" y="2826">  │ │ │ ├── repeating@1.1.3 </tspan>
<tspan x="10" y="2842">  │ │ │ ├── shebang-regex@1.0.0 </tspan>
<tspan x="10" y="2858">  │ │ │ ├── slash@1.0.0 </tspan>
<tspan x="10" y="2874">  │ │ │ ├── source-map@0.5.6 </tspan>
<tspan x="10" y="2890">  │ │ │ ├─┬ source-map-support@0.2.10 </tspan>
<tspan x="10" y="2906">  │ │ │ │ └─┬ source-map@0.1.32 </tspan>
<tspan x="10" y="2922">  │ │ │ │   └── amdefine@1.0.1 </tspan>
<tspan x="10" y="2938">  │ │ │ ├── to-fast-properties@1.0.2 </tspan>
<tspan x="10" y="2954">  │ │ │ ├── trim-right@1.0.1 </tspan>
<tspan x="10" y="2970">  │ │ │ └── try-resolve@1.0.1 </tspan>
<tspan x="10" y="2986">  │ │ ├── clone@0.2.0 </tspan>
<tspan x="10" y="3002">  │ │ └─┬ json-stable-stringify@1.0.1 </tspan>
<tspan x="10" y="3018">  │ │   └── jsonify@0.0.0 </tspan>
<tspan x="10" y="3034">  │ └── clone@2.1.1 </tspan>
<tspan x="10" y="3050">  ├─┬ ember-cli-eslint@3.0.3 </tspan>
<tspan x="10" y="3066">  │ ├─┬ broccoli-lint-eslint@3.2.1 </tspan>
<tspan x="10" y="3082">  │ │ ├─┬ eslint@3.19.0 </tspan>
<tspan x="10" y="3098">  │ │ │ ├─┬ babel-code-frame@6.22.0 </tspan>
<tspan x="10" y="3114">  │ │ │ │ └── js-tokens@3.0.1 </tspan>
<tspan x="10" y="3130">  │ │ │ ├─┬ concat-stream@1.6.0 </tspan>
<tspan x="10" y="3146">  │ │ │ │ ├─┬ readable-stream@2.2.9 </tspan>
<tspan x="10" y="3162">  │ │ │ │ │ ├── buffer-shims@1.0.0 </tspan>
<tspan x="10" y="3178">  │ │ │ │ │ ├── core-util-is@1.0.2 </tspan>
<tspan x="10" y="3194">  │ │ │ │ │ ├── process-nextick-args@1.0.7 </tspan>
<tspan x="10" y="3210">  │ │ │ │ │ └── string_decoder@1.0.0 </tspan>
<tspan x="10" y="3226">  │ │ │ │ └── typedarray@0.0.6 </tspan>
<tspan x="10" y="3242">  │ │ │ ├─┬ doctrine@2.0.0 </tspan>
<tspan x="10" y="3258">  │ │ │ │ └── isarray@1.0.0 </tspan>
<tspan x="10" y="3274">  │ │ │ ├─┬ escope@3.6.0 </tspan>
<tspan x="10" y="3290">  │ │ │ │ ├─┬ es6-map@0.1.5 </tspan>
<tspan x="10" y="3306">  │ │ │ │ │ ├── d@1.0.0 </tspan>
<tspan x="10" y="3322">  │ │ │ │ │ ├── es5-ext@0.10.15 </tspan>
<tspan x="10" y="3338">  │ │ │ │ │ ├── es6-iterator@2.0.1 </tspan>
<tspan x="10" y="3354">  │ │ │ │ │ ├── es6-set@0.1.5 </tspan>
<tspan x="10" y="3370">  │ │ │ │ │ ├── es6-symbol@3.1.1 </tspan>
<tspan x="10" y="3386">  │ │ │ │ │ └── event-emitter@0.3.5 </tspan>
<tspan x="10" y="3402">  │ │ │ │ ├── es6-weak-map@2.0.2 </tspan>
<tspan x="10" y="3418">  │ │ │ │ └─┬ esrecurse@4.1.0 </tspan>
<tspan x="10" y="3434">  │ │ │ │   └── estraverse@4.1.1 </tspan>
<tspan x="10" y="3450">  │ │ │ ├─┬ espree@3.4.1 </tspan>
<tspan x="10" y="3466">  │ │ │ │ ├── acorn@5.0.3 </tspan>
<tspan x="10" y="3482">  │ │ │ │ └─┬ acorn-jsx@3.0.1 </tspan>
<tspan x="10" y="3498">  │ │ │ │   └── acorn@3.3.0 </tspan>
<tspan x="10" y="3514">  │ │ │ ├── esquery@1.0.0 </tspan>
<tspan x="10" y="3530">  │ │ │ ├── estraverse@4.2.0 </tspan>
<tspan x="10" y="3546">  │ │ │ ├─┬ file-entry-cache@2.0.0 </tspan>
<tspan x="10" y="3562">  │ │ │ │ └─┬ flat-cache@1.2.2 </tspan>
<tspan x="10" y="3578">  │ │ │ │   ├── circular-json@0.3.1 </tspan>
<tspan x="10" y="3594">  │ │ │ │   ├─┬ del@2.2.2 </tspan>
<tspan x="10" y="3610">  │ │ │ │   │ ├─┬ globby@5.0.0 </tspan>
<tspan x="10" y="3626">  │ │ │ │   │ │ ├─┬ array-union@1.0.2 </tspan>
<tspan x="10" y="3642">  │ │ │ │   │ │ │ └── array-uniq@1.0.3 </tspan>
<tspan x="10" y="3658">  │ │ │ │   │ │ └── arrify@1.0.1 </tspan>
<tspan x="10" y="3674">  │ │ │ │   │ ├── is-path-cwd@1.0.0 </tspan>
<tspan x="10" y="3690">  │ │ │ │   │ ├─┬ is-path-in-cwd@1.0.0 </tspan>
<tspan x="10" y="3706">  │ │ │ │   │ │ └── is-path-inside@1.0.0 </tspan>
<tspan x="10" y="3722">  │ │ │ │   │ ├── pify@2.3.0 </tspan>
<tspan x="10" y="3738">  │ │ │ │   │ └─┬ pinkie-promise@2.0.1 </tspan>
<tspan x="10" y="3754">  │ │ │ │   │   └── pinkie@2.0.4 </tspan>
<tspan x="10" y="3770">  │ │ │ │   └── write@0.2.1 </tspan>
<tspan x="10" y="3786">  │ │ │ ├── globals@9.17.0 </tspan>
<tspan x="10" y="3802">  │ │ │ ├── ignore@3.2.7 </tspan>
<tspan x="10" y="3818">  │ │ │ ├── imurmurhash@0.1.4 </tspan>
<tspan x="10" y="3834">  │ │ │ ├─┬ inquirer@0.12.0 </tspan>
<tspan x="10" y="3850">  │ │ │ │ ├── ansi-escapes@1.4.0 </tspan>
<tspan x="10" y="3866">  │ │ │ │ ├─┬ cli-cursor@1.0.2 </tspan>
<tspan x="10" y="3882">  │ │ │ │ │ └─┬ restore-cursor@1.0.1 </tspan>
<tspan x="10" y="3898">  │ │ │ │ │   ├── exit-hook@1.1.1 </tspan>
<tspan x="10" y="3914">  │ │ │ │ │   └── onetime@1.1.0 </tspan>
<tspan x="10" y="3930">  │ │ │ │ ├── cli-width@2.1.0 </tspan>
<tspan x="10" y="3946">  │ │ │ │ ├── figures@1.7.0 </tspan>
<tspan x="10" y="3962">  │ │ │ │ ├── lodash@4.17.4 </tspan>
<tspan x="10" y="3978">  │ │ │ │ ├─┬ readline2@1.0.1 </tspan>
<tspan x="10" y="3994">  │ │ │ │ │ ├── code-point-at@1.1.0 </tspan>
<tspan x="10" y="4010">  │ │ │ │ │ ├── is-fullwidth-code-point@1.0.0 </tspan>
<tspan x="10" y="4026">  │ │ │ │ │ └── mute-stream@0.0.5 </tspan>
<tspan x="10" y="4042">  │ │ │ │ ├── run-async@0.1.0 </tspan>
<tspan x="10" y="4058">  │ │ │ │ ├── rx-lite@3.1.2 </tspan>
<tspan x="10" y="4074">  │ │ │ │ └── string-width@1.0.2 </tspan>
<tspan x="10" y="4090">  │ │ │ ├─┬ is-my-json-valid@2.16.0 </tspan>
<tspan x="10" y="4106">  │ │ │ │ ├── generate-function@2.0.0 </tspan>
<tspan x="10" y="4122">  │ │ │ │ ├─┬ generate-object-property@1.2.0 </tspan>
<tspan x="10" y="4138">  │ │ │ │ │ └── is-property@1.0.2 </tspan>
<tspan x="10" y="4154">  │ │ │ │ ├── jsonpointer@4.0.1 </tspan>
<tspan x="10" y="4170">  │ │ │ │ └── xtend@4.0.1 </tspan>
<tspan x="10" y="4186">  │ │ │ ├─┬ is-resolvable@1.0.0 </tspan>
<tspan x="10" y="4202">  │ │ │ │ └── tryit@1.0.3 </tspan>
<tspan x="10" y="4218">  │ │ │ ├─┬ js-yaml@3.8.3 </tspan>
<tspan x="10" y="4234">  │ │ │ │ ├── argparse@1.0.9 </tspan>
<tspan x="10" y="4250">  │ │ │ │ └── esprima@3.1.3 </tspan>
<tspan x="10" y="4266">  │ │ │ ├─┬ levn@0.3.0 </tspan>
<tspan x="10" y="4282">  │ │ │ │ ├── prelude-ls@1.1.2 </tspan>
<tspan x="10" y="4298">  │ │ │ │ └── type-check@0.3.2 </tspan>
<tspan x="10" y="4314">  │ │ │ ├── lodash@4.17.4 </tspan>
<tspan x="10" y="4330">  │ │ │ ├── natural-compare@1.4.0 </tspan>
<tspan x="10" y="4346">  │ │ │ ├─┬ optionator@0.8.2 </tspan>
<tspan x="10" y="4362">  │ │ │ │ ├── deep-is@0.1.3 </tspan>
<tspan x="10" y="4378">  │ │ │ │ ├── fast-levenshtein@2.0.6 </tspan>
<tspan x="10" y="4394">  │ │ │ │ └── wordwrap@1.0.0 </tspan>
<tspan x="10" y="4410">  │ │ │ ├── path-is-inside@1.0.2 </tspan>
<tspan x="10" y="4426">  │ │ │ ├── pluralize@1.2.1 </tspan>
<tspan x="10" y="4442">  │ │ │ ├── progress@1.1.8 </tspan>
<tspan x="10" y="4458">  │ │ │ ├─┬ require-uncached@1.0.3 </tspan>
<tspan x="10" y="4474">  │ │ │ │ ├─┬ caller-path@0.1.0 </tspan>
<tspan x="10" y="4490">  │ │ │ │ │ └── callsites@0.2.0 </tspan>
<tspan x="10" y="4506">  │ │ │ │ └── resolve-from@1.0.1 </tspan>
<tspan x="10" y="4522">  │ │ │ ├─┬ shelljs@0.7.7 </tspan>
<tspan x="10" y="4538">  │ │ │ │ ├── interpret@1.0.3 </tspan>
<tspan x="10" y="4554">  │ │ │ │ └── rechoir@0.6.2 </tspan>
<tspan x="10" y="4570">  │ │ │ ├── strip-bom@3.0.0 </tspan>
<tspan x="10" y="4586">  │ │ │ ├── strip-json-comments@2.0.1 </tspan>
<tspan x="10" y="4602">  │ │ │ ├─┬ table@3.8.3 </tspan>
<tspan x="10" y="4618">  │ │ │ │ ├─┬ ajv@4.11.7 </tspan>
<tspan x="10" y="4634">  │ │ │ │ │ └── co@4.6.0 </tspan>
<tspan x="10" y="4650">  │ │ │ │ ├── ajv-keywords@1.5.1 </tspan>
<tspan x="10" y="4666">  │ │ │ │ ├── lodash@4.17.4 </tspan>
<tspan x="10" y="4682">  │ │ │ │ ├── slice-ansi@0.0.4 </tspan>
<tspan x="10" y="4698">  │ │ │ │ └─┬ string-width@2.0.0 </tspan>
<tspan x="10" y="4714">  │ │ │ │   └── is-fullwidth-code-point@2.0.0 </tspan>
<tspan x="10" y="4730">  │ │ │ ├── text-table@0.2.0 </tspan>
<tspan x="10" y="4746">  │ │ │ └─┬ user-home@2.0.0 </tspan>
<tspan x="10" y="4762">  │ │ │   └── os-homedir@1.0.2 </tspan>
<tspan x="10" y="4778">  │ │ └── md5-hex@2.0.0 </tspan>
<tspan x="10" y="4794">  │ └── js-string-escape@1.0.1 </tspan>
<tspan x="10" y="4810">  ├─┬ ember-cli-version-checker@1.2.0 </tspan>
<tspan x="10" y="4826">  │ └── semver@5.3.0 </tspan>
<tspan x="10" y="4842">  ├─┬ express@4.15.2 </tspan>
<tspan x="10" y="4858">  │ ├── array-flatten@1.1.1 </tspan>
<tspan x="10" y="4874">  │ ├── content-disposition@0.5.2 </tspan>
<tspan x="10" y="4890">  │ ├── content-type@1.0.2 </tspan>
<tspan x="10" y="4906">  │ ├── cookie@0.3.1 </tspan>
<tspan x="10" y="4922">  │ ├── cookie-signature@1.0.6 </tspan>
<tspan x="10" y="4938">  │ ├── debug@2.6.1 </tspan>
<tspan x="10" y="4954">  │ ├── depd@1.1.0 </tspan>
<tspan x="10" y="4970">  │ ├── encodeurl@1.0.1 </tspan>
<tspan x="10" y="4986">  │ ├── escape-html@1.0.3 </tspan>
<tspan x="10" y="5002">  │ ├── etag@1.8.0 </tspan>
<tspan x="10" y="5018">  │ ├─┬ finalhandler@1.0.1 </tspan>
<tspan x="10" y="5034">  │ │ └── unpipe@1.0.0 </tspan>
<tspan x="10" y="5050">  │ ├── fresh@0.5.0 </tspan>
<tspan x="10" y="5066">  │ ├── merge-descriptors@1.0.1 </tspan>
<tspan x="10" y="5082">  │ ├── methods@1.1.2 </tspan>
<tspan x="10" y="5098">  │ ├─┬ on-finished@2.3.0 </tspan>
<tspan x="10" y="5114">  │ │ └── ee-first@1.1.1 </tspan>
<tspan x="10" y="5130">  │ ├── parseurl@1.3.1 </tspan>
<tspan x="10" y="5146">  │ ├── path-to-regexp@0.1.7 </tspan>
<tspan x="10" y="5162">  │ ├─┬ proxy-addr@1.1.4 </tspan>
<tspan x="10" y="5178">  │ │ ├── forwarded@0.1.0 </tspan>
<tspan x="10" y="5194">  │ │ └── ipaddr.js@1.3.0 </tspan>
<tspan x="10" y="5210">  │ ├── qs@6.4.0 </tspan>
<tspan x="10" y="5226">  │ ├── range-parser@1.2.0 </tspan>
<tspan x="10" y="5242">  │ ├─┬ send@0.15.1 </tspan>
<tspan x="10" y="5258">  │ │ ├── debug@2.6.1 </tspan>
<tspan x="10" y="5274">  │ │ ├── destroy@1.0.4 </tspan>
<tspan x="10" y="5290">  │ │ ├── http-errors@1.6.1 </tspan>
<tspan x="10" y="5306">  │ │ └── mime@1.3.4 </tspan>
<tspan x="10" y="5322">  │ ├── serve-static@1.12.1 </tspan>
<tspan x="10" y="5338">  │ ├── setprototypeof@1.0.3 </tspan>
<tspan x="10" y="5354">  │ ├── statuses@1.3.1 </tspan>
<tspan x="10" y="5370">  │ ├─┬ type-is@1.6.15 </tspan>
<tspan x="10" y="5386">  │ │ └── media-typer@0.3.0 </tspan>
<tspan x="10" y="5402">  │ └── utils-merge@1.0.0 </tspan>
<tspan x="10" y="5418">  ├─┬ fastboot-express-middleware@1.0.0-rc.7 </tspan>
<tspan x="10" y="5434">  │ └─┬ fastboot@1.0.0-rc.6 </tspan>
<tspan x="10" y="5450">  │   ├─┬ chalk@0.5.1 </tspan>
<tspan x="10" y="5466">  │   │ ├── ansi-styles@1.1.0 </tspan>
<tspan x="10" y="5482">  │   │ ├─┬ has-ansi@0.1.0 </tspan>
<tspan x="10" y="5498">  │   │ │ └── ansi-regex@0.2.1 </tspan>
<tspan x="10" y="5514">  │   │ ├── strip-ansi@0.3.0 </tspan>
<tspan x="10" y="5530">  │   │ └── supports-color@0.2.0 </tspan>
<tspan x="10" y="5546">  │   ├── cookie@0.2.4 </tspan>
<tspan x="10" y="5562">  │   ├── exists-sync@0.0.3 </tspan>
<tspan x="10" y="5578">  │   ├── express-cluster@0.0.4 </tspan>
<tspan x="10" y="5594">  │   ├─┬ glob@4.5.3 </tspan>
<tspan x="10" y="5610">  │   │ └── minimatch@2.0.10 </tspan>
<tspan x="10" y="5626">  │   ├── minimist@1.2.0 </tspan>
<tspan x="10" y="5642">  │   ├─┬ najax@1.0.3 </tspan>
<tspan x="10" y="5658">  │   │ ├── jquery-deferred@0.3.1 </tspan>
<tspan x="10" y="5674">  │   │ └── lodash.defaultsdeep@4.6.0 </tspan>
<tspan x="10" y="5690">  │   ├── simple-dom@0.3.2 </tspan>
<tspan x="10" y="5706">  │   └── source-map-support@0.4.14 </tspan>
<tspan x="10" y="5722">  ├── fastboot-filter-initializers@0.0.2 </tspan>
<tspan x="10" y="5738">  ├── lodash.defaults@4.2.0 </tspan>
<tspan x="10" y="5754">  ├── lodash.uniq@4.5.0 </tspan>
<tspan x="10" y="5770">  ├─┬ md5-hex@1.3.0 </tspan>
<tspan x="10" y="5786">  │ └── md5-o-matic@0.1.1 </tspan>
<tspan x="10" y="5802">  ├─┬ portfinder@1.0.13 </tspan>
<tspan x="10" y="5818">  │ └── async@1.5.2 </tspan>
<tspan x="10" y="5834">  ├── rsvp@3.5.0 </tspan>
<tspan x="10" y="5850">  └── silent-error@1.0.1</tspan>
</text>
</svg>
